<svg xmlns="http://www.w3.org/2000/svg" width="35.127" height="35.446" viewBox="0 0 35.127 35.446">
  <path id="restaurant_menu_FILL1_wght600_GRAD200_opsz48" d="M109.852-817.511l-2.759-2.759,20.039-20.087a7.533,7.533,0,0,1-.231-4.915,10.857,10.857,0,0,1,2.723-4.621,10.908,10.908,0,0,1,5.407-2.786,5.623,5.623,0,0,1,5.5,1.442,5.525,5.525,0,0,1,1.442,5.49,11.383,11.383,0,0,1-2.955,5.535,9.571,9.571,0,0,1-4.368,2.681,7.419,7.419,0,0,1-4.715-.116l-2.543,2.563,14.812,14.812-2.759,2.759-14.785-14.812Zm5.482-17.125-5.575-5.575a8.335,8.335,0,0,1-2.674-6.329,9.878,9.878,0,0,1,2.7-6.417l11.949,11.922Z" transform="translate(-107.081 852.957)" fill="#707070"/>
</svg>
