<svg xmlns="http://www.w3.org/2000/svg" width="44.776" height="32.917" viewBox="0 0 44.776 32.917">
  <path id="group_FILL1_wght600_GRAD200_opsz48" d="M16.348-779.518v-5.448a6.426,6.426,0,0,1,.975-3.512,6.136,6.136,0,0,1,2.745-2.336,42.174,42.174,0,0,1,6.552-2.287,25.2,25.2,0,0,1,6.05-.724,25.134,25.134,0,0,1,6.079.724,42.567,42.567,0,0,1,6.531,2.288,6.047,6.047,0,0,1,2.758,2.293,6.356,6.356,0,0,1,1.009,3.552v5.45Zm35.956,0v-5.436a8.553,8.553,0,0,0-1.547-5.188,14.683,14.683,0,0,0-4.124-3.733,54.373,54.373,0,0,1,6.038,1.2,24.228,24.228,0,0,1,4.707,1.687,7.4,7.4,0,0,1,2.727,2.5,6.493,6.493,0,0,1,1.02,3.618v5.352ZM32.7-796.887a7.613,7.613,0,0,1-5.63-2.151,7.556,7.556,0,0,1-2.151-5.585,7.671,7.671,0,0,1,2.152-5.637,7.531,7.531,0,0,1,5.6-2.175,7.674,7.674,0,0,1,5.622,2.171,7.524,7.524,0,0,1,2.2,5.6,7.531,7.531,0,0,1-2.19,5.623A7.663,7.663,0,0,1,32.7-796.887Zm18.947-7.774a7.559,7.559,0,0,1-2.181,5.61,7.61,7.61,0,0,1-5.6,2.165,10.259,10.259,0,0,1-1.3-.083,5.933,5.933,0,0,1-1.3-.324,8.593,8.593,0,0,0,1.836-3.189,13.316,13.316,0,0,0,.6-4.147,12.62,12.62,0,0,0-.607-4.081,11.05,11.05,0,0,0-1.832-3.322,9.57,9.57,0,0,1,1.3-.29,8.431,8.431,0,0,1,1.3-.113,7.58,7.58,0,0,1,5.594,2.184A7.563,7.563,0,0,1,51.651-804.661Z" transform="translate(-16.348 812.435)" fill="#707070"/>
</svg>
