<svg xmlns="http://www.w3.org/2000/svg" width="15.345" height="23.604" viewBox="0 0 15.345 23.604">
  <path id="phone_android_FILL1_wght600_GRAD200_opsz48" d="M187.7-917.294h4.285v-1.064H187.7Zm-3.387,2.768a2.068,2.068,0,0,1-1.493-.64,2.042,2.042,0,0,1-.65-1.5v-19.319a2.042,2.042,0,0,1,.65-1.5,2.068,2.068,0,0,1,1.493-.64h11.059a2.068,2.068,0,0,1,1.493.64,2.041,2.041,0,0,1,.65,1.5v19.319a2.042,2.042,0,0,1-.65,1.5,2.068,2.068,0,0,1-1.493.64Zm0-6.078h11.059v-13H184.317Z" transform="translate(-182.174 938.13)"/>
</svg>
