<svg width="24" height="24" viewBox="0 0 24 24" fill="none" xmlns="http://www.w3.org/2000/svg">
<g id="fluent:mail-24-filled">
<path id="Vector" d="M22 8.38857V16.1429C22.0001 16.9335 21.6824 17.6941 21.1123 18.2688C20.5422 18.8435 19.7628 19.1886 18.934 19.2333L18.75 19.2381H5.25C4.41986 19.2381 3.62117 18.9357 3.01777 18.3927C2.41437 17.8497 2.052 17.1074 2.005 16.3181L2 16.1429V8.38857L11.652 13.2038C11.7594 13.2574 11.8788 13.2854 12 13.2854C12.1212 13.2854 12.2406 13.2574 12.348 13.2038L22 8.38857ZM5.25 4H18.75C19.5556 3.99991 20.3325 4.28476 20.93 4.7993C21.5276 5.31385 21.9032 6.02141 21.984 6.78476L12 11.7657L2.016 6.78476C2.09352 6.05173 2.44305 5.36906 3.00175 4.85949C3.56045 4.34991 4.29168 4.04684 5.064 4.00476L5.25 4Z" fill="#359945"/>
</g>
</svg>