<svg xmlns="http://www.w3.org/2000/svg" xmlns:xlink="http://www.w3.org/1999/xlink" width="123.542" height="66.026" viewBox="0 0 123.542 66.026">
  <defs>
    <clipPath id="clip-path">
      <rect id="Rectangle_104" data-name="Rectangle 104" width="123.542" height="66.026" fill="#fff"/>
    </clipPath>
  </defs>
  <g id="Group_155" data-name="Group 155" transform="translate(0 0)">
    <g id="Group_154" data-name="Group 154" transform="translate(0 0)" clip-path="url(#clip-path)">
      <path id="Path_47" data-name="Path 47" d="M39.676,43.946a2.057,2.057,0,0,1-1.982-1.517L28.063,6.95a2.021,2.021,0,0,1,.2-1.565,2.057,2.057,0,0,1,1.249-.961L44.36.446A2.051,2.051,0,0,1,46.875,1.9l9.583,35.543A2.06,2.06,0,0,1,55,39.961l-14.79,3.917a2.024,2.024,0,0,1-.53.068M32.568,7.863l8.557,31.514L51.95,36.512,43.444,4.951Z" transform="translate(67.016 0.894)" fill="#fff"/>
      <path id="Path_48" data-name="Path 48" d="M65.306,38.026a12.56,12.56,0,0,1-6.955-2.108L38.36,22.652a5.983,5.983,0,0,0-6.528-.054l-7.617,4.874a6.387,6.387,0,0,1-7.763-10.085L29.538,5.361A12.913,12.913,0,0,1,42,2.533L52.03,5.6a12.329,12.329,0,0,0,6.935.088l4.179-1.161a2.055,2.055,0,0,1,2.536,1.443L73.3,34.044a2.056,2.056,0,0,1-1.365,2.5l-2.811.889a12.627,12.627,0,0,1-3.819.594M35.054,17.543a10.093,10.093,0,0,1,5.581,1.68l19.99,13.269a8.439,8.439,0,0,0,7.261,1.018l.927-.292L62.251,9.047l-2.183.608a16.455,16.455,0,0,1-9.24-.122L40.8,6.467a8.773,8.773,0,0,0-8.479,1.921L19.233,20.415a2.264,2.264,0,0,0-.526,2.631A2.275,2.275,0,0,0,22,24.007l7.617-4.871a10.062,10.062,0,0,1,5.438-1.592" transform="translate(34.434 4.73)" fill="#fff"/>
      <path id="Path_49" data-name="Path 49" d="M16.4,41.283a2.06,2.06,0,0,1-.872-.193L6.193,36.725a2.053,2.053,0,0,1-1.035-2.631L15.612,8.13a2.061,2.061,0,0,1,2.206-1.266l7.108,1.049a10.951,10.951,0,0,0,5.3-.536l14.813-5.4a8.822,8.822,0,0,1,6.321.105L57,4.355A2.057,2.057,0,1,1,55.463,8.17L49.822,5.9a4.684,4.684,0,0,0-3.374-.058L31.631,11.239a15.016,15.016,0,0,1-7.3.743l-5.5-.815L9.7,33.822l7.57,3.544a2.055,2.055,0,0,1-.872,3.917" transform="translate(11.988 3.458)" fill="#fff"/>
      <path id="Path_50" data-name="Path 50" d="M13.361,26.791a6.152,6.152,0,0,1-5.007-9.7l2.6-3.676a6.147,6.147,0,0,1,10.034,7.1l-2.6,3.676a6.191,6.191,0,0,1-5.031,2.6m2.617-11.864a1.989,1.989,0,0,0-.346.031,2.036,2.036,0,0,0-1.32.828l-2.6,3.676A2.038,2.038,0,0,0,12.2,22.3a2.034,2.034,0,0,0,2.838-.485l2.6-3.673a2.036,2.036,0,0,0-1.657-3.215" transform="translate(17.301 25.894)" fill="#fff"/>
      <path id="Path_51" data-name="Path 51" d="M15.132,34.187A6.308,6.308,0,0,1,9.99,24.231l7.824-11.052a6.312,6.312,0,0,1,10.3,7.295L20.3,31.523a6.311,6.311,0,0,1-5.163,2.665m7.834-19.559a2.195,2.195,0,0,0-1.8.927L13.347,26.6a2.2,2.2,0,1,0,3.591,2.542L24.759,18.1a2.2,2.2,0,0,0-.523-3.065,2.176,2.176,0,0,0-1.27-.4" transform="translate(21.144 25.181)" fill="#fff"/>
      <path id="Path_52" data-name="Path 52" d="M17.724,32.63a6.308,6.308,0,0,1-5.143-9.956l5.581-7.882a6.311,6.311,0,1,1,10.3,7.291l-5.577,7.885a6.312,6.312,0,0,1-5.163,2.661m5.594-16.392a2.35,2.35,0,0,0-.377.031,2.177,2.177,0,0,0-1.422.9L15.939,25.05a2.2,2.2,0,0,0,3.591,2.542l5.577-7.882a2.2,2.2,0,0,0-.523-3.069,2.193,2.193,0,0,0-1.266-.4" transform="translate(27.351 29.04)" fill="#fff"/>
      <path id="Path_53" data-name="Path 53" d="M20.106,32.979a6.49,6.49,0,0,1-5.282-10.234l4.392-6.205A6.485,6.485,0,1,1,29.8,24.035L25.412,30.24a6.511,6.511,0,0,1-5.306,2.739m4.409-15.065a2.665,2.665,0,0,0-.4.034,2.364,2.364,0,0,0-1.538.971l-4.392,6.2a2.372,2.372,0,0,0,.567,3.306,2.375,2.375,0,0,0,3.306-.567l4.389-6.2a2.373,2.373,0,0,0-1.928-3.744" transform="translate(32.651 33.046)" fill="#fff"/>
      <path id="Path_54" data-name="Path 54" d="M30.047,27.62a4.976,4.976,0,0,1-2.071-.451l-9.7-4.43A2.056,2.056,0,1,1,19.979,19l9.708,4.43a.874.874,0,0,0,.777-1.565l-5.4-2.9a2.058,2.058,0,0,1,1.948-3.625l5.4,2.9a4.99,4.99,0,0,1-2.366,9.382" transform="translate(40.867 36.131)" fill="#fff"/>
      <path id="Path_55" data-name="Path 55" d="M34.351,32.221a5.871,5.871,0,0,1-2.573-.6l-5.326-2.6a2.056,2.056,0,1,1,1.8-3.7l5.326,2.6A1.715,1.715,0,0,0,35.192,24.9L19.527,15.8a2.056,2.056,0,1,1,2.067-3.554L37.26,21.341a5.836,5.836,0,0,1-2.909,10.879" transform="translate(44.309 28.658)" fill="#fff"/>
      <path id="Path_56" data-name="Path 56" d="M36.33,31.118a6.062,6.062,0,0,1-3.055-.832L20.994,23.1a2.057,2.057,0,0,1,2.077-3.551l12.281,7.179a1.961,1.961,0,0,0,2.016-3.364l-15.374-9.43a2.057,2.057,0,1,1,2.152-3.506l15.37,9.43A6.073,6.073,0,0,1,37.956,30.9a6.193,6.193,0,0,1-1.626.221" transform="translate(47.829 24.255)" fill="#fff"/>
      <path id="Path_57" data-name="Path 57" d="M34.186,29.081a7,7,0,0,1-3.761-1.1l-6.025-3.8A2.057,2.057,0,1,1,26.6,20.7l6.025,3.805a2.964,2.964,0,0,0,3.221-4.976l-10.8-7.169a2.055,2.055,0,0,1,2.271-3.425l10.8,7.166A7.079,7.079,0,0,1,35.88,28.877a7.222,7.222,0,0,1-1.694.2" transform="translate(56.131 20.576)" fill="#fff"/>
      <path id="Path_58" data-name="Path 58" d="M17.328,44.37a2.078,2.078,0,0,1-.737-.136L1.32,38.358A2.049,2.049,0,0,1,.139,35.7L13.374,1.318a2.058,2.058,0,0,1,2.61-1.2L32.108,5.873a2.061,2.061,0,0,1,1.205,2.733l-1.9,4.532L20.96,39.088l-1.741,4.039a2.058,2.058,0,0,1-1.891,1.242M4.714,35.259l11.511,4.426.94-2.179L27.6,11.586c.01-.027,1.079-2.57,1.079-2.57L16.493,4.668Z" transform="translate(0 -0.001)" fill="#fff"/>
    </g>
  </g>
</svg>
