<svg xmlns="http://www.w3.org/2000/svg" xmlns:xlink="http://www.w3.org/1999/xlink" width="92.856" height="90.935" viewBox="0 0 92.856 90.935">
  <defs>
    <clipPath id="clip-path">
      <rect id="Rectangle_107" data-name="Rectangle 107" width="92.856" height="90.935" fill="#fff"/>
    </clipPath>
  </defs>
  <g id="Group_157" data-name="Group 157" transform="translate(0 0)">
    <g id="Group_156" data-name="Group 156" transform="translate(0 0)" clip-path="url(#clip-path)">
      <path id="Path_59" data-name="Path 59" d="M87.913,60.44H4.946A4.952,4.952,0,0,1,0,55.494V4.946A4.952,4.952,0,0,1,4.946,0h10.13V3.3H4.946A1.651,1.651,0,0,0,3.3,4.946V55.494a1.651,1.651,0,0,0,1.649,1.649H87.913a1.651,1.651,0,0,0,1.649-1.649V4.946A1.651,1.651,0,0,0,87.913,3.3H52.931V0H87.913a4.95,4.95,0,0,1,4.944,4.946V55.494a4.95,4.95,0,0,1-4.944,4.946" transform="translate(0 0.001)" fill="#fff"/>
      <path id="Path_60" data-name="Path 60" d="M12.352,3.3H6.584a1.649,1.649,0,0,1,0-3.3h5.768a1.649,1.649,0,1,1,0,3.3" transform="translate(8.492 0.001)" fill="#fff"/>
      <path id="Path_61" data-name="Path 61" d="M20.7,3.3H11.928a1.649,1.649,0,0,1,0-3.3H20.7a1.649,1.649,0,0,1,0,3.3" transform="translate(17.688 0.001)" fill="#fff"/>
      <path id="Path_62" data-name="Path 62" d="M24.145,3.3H18.377a1.649,1.649,0,0,1,0-3.3h5.768a1.649,1.649,0,1,1,0,3.3" transform="translate(28.786 0.001)" fill="#fff"/>
      <path id="Path_63" data-name="Path 63" d="M10.778,20.163a6.491,6.491,0,1,1,6.489-6.489,6.495,6.495,0,0,1-6.489,6.489m0-9.683a3.194,3.194,0,1,0,3.2,3.194,3.2,3.2,0,0,0-3.2-3.194" transform="translate(7.386 12.36)" fill="#fff"/>
      <path id="Path_64" data-name="Path 64" d="M21.778,23.305a6.491,6.491,0,1,1,6.489-6.489,6.5,6.5,0,0,1-6.489,6.489m0-9.683a3.194,3.194,0,1,0,3.194,3.194,3.2,3.2,0,0,0-3.194-3.194" transform="translate(26.31 17.767)" fill="#fff"/>
      <path id="Path_65" data-name="Path 65" d="M32.886,17.3a6.491,6.491,0,1,1,6.489-6.489A6.5,6.5,0,0,1,32.886,17.3m0-9.683a3.194,3.194,0,1,0,3.194,3.194A3.2,3.2,0,0,0,32.886,7.62" transform="translate(45.425 7.438)" fill="#fff"/>
      <rect id="Rectangle_105" data-name="Rectangle 105" width="3.296" height="21.971" transform="translate(22.366 27.55) rotate(-67.093)" fill="#fff"/>
      <rect id="Rectangle_106" data-name="Rectangle 106" width="26.24" height="3.298" transform="translate(51.905 33.294) rotate(-38.497)" fill="#fff"/>
      <path id="Path_66" data-name="Path 66" d="M38.953,20.665H27.333a1.649,1.649,0,1,1,0-3.3H38.953a1.649,1.649,0,0,1,0,3.3" transform="translate(44.198 29.887)" fill="#fff"/>
      <path id="Path_67" data-name="Path 67" d="M17.653,20.665H11.885a1.649,1.649,0,0,1,0-3.3h5.768a1.649,1.649,0,0,1,0,3.3" transform="translate(17.614 29.887)" fill="#fff"/>
      <path id="Path_68" data-name="Path 68" d="M27.906,20.665H17.741a1.649,1.649,0,1,1,0-3.3H27.906a1.649,1.649,0,1,1,0,3.3" transform="translate(27.691 29.887)" fill="#fff"/>
      <path id="Path_69" data-name="Path 69" d="M30.981,20.665H25.213a1.649,1.649,0,1,1,0-3.3h5.768a1.649,1.649,0,0,1,0,3.3" transform="translate(40.549 29.887)" fill="#fff"/>
      <path id="Path_70" data-name="Path 70" d="M22.115,20.665H5.94a1.649,1.649,0,0,1,0-3.3H22.115a1.649,1.649,0,1,1,0,3.3" transform="translate(7.384 29.887)" fill="#fff"/>
      <path id="Path_71" data-name="Path 71" d="M26.852,54.793H16.138a1.648,1.648,0,0,1-1.649-1.649V22.649A1.647,1.647,0,0,1,16.138,21H26.852A1.647,1.647,0,0,1,28.5,22.649V53.144a1.648,1.648,0,0,1-1.649,1.649m-9.066-3.3H25.2V24.3H17.787Z" transform="translate(24.933 36.144)" fill="#fff"/>
      <path id="Path_72" data-name="Path 72" d="M76.674,35.508H4.766a1.649,1.649,0,0,1,0-3.3H76.674a1.649,1.649,0,0,1,0,3.3" transform="translate(5.364 55.429)" fill="#fff"/>
    </g>
  </g>
</svg>
