<svg xmlns="http://www.w3.org/2000/svg" width="25.337" height="23.076" viewBox="0 0 25.337 23.076">
  <path id="print_FILL1_wght600_GRAD200_opsz48" d="M79.095-855.639H63.635v-4.926h15.46Zm-.348,6.83a1.145,1.145,0,0,0,.828-.321,1.067,1.067,0,0,0,.332-.8,1.144,1.144,0,0,0-.331-.828,1.09,1.09,0,0,0-.814-.341,1.081,1.081,0,0,0-.821.343,1.141,1.141,0,0,0-.324.811,1.1,1.1,0,0,0,.324.813A1.1,1.1,0,0,0,78.747-848.809ZM76.578-839.9v-4.556H66.134v4.556Zm2.516,2.414H63.635v-5.538H58.7v-7.894a3.645,3.645,0,0,1,1.072-2.655,3.537,3.537,0,0,1,2.623-1.09H80.321a3.553,3.553,0,0,1,2.644,1.09,3.652,3.652,0,0,1,1.068,2.655v7.894H79.095Z" transform="translate(-58.696 860.565)" fill="#fff"/>
</svg>
