<svg xmlns="http://www.w3.org/2000/svg" xmlns:xlink="http://www.w3.org/1999/xlink" width="114.407" height="114.407" viewBox="0 0 114.407 114.407">
  <defs>
    <clipPath id="clip-path">
      <rect id="Rectangle_109" data-name="Rectangle 109" width="114.407" height="114.407" fill="#fff"/>
    </clipPath>
  </defs>
  <g id="Group_161" data-name="Group 161" transform="translate(0 0)">
    <g id="Group_160" data-name="Group 160" transform="translate(0 0)" clip-path="url(#clip-path)">
      <path id="Path_79" data-name="Path 79" d="M20.749,23.849a8.457,8.457,0,1,1,.019,0Zm0-13.138a4.668,4.668,0,1,0,4.666,4.657,4.659,4.659,0,0,0-4.666-4.657" transform="translate(26.24 14.77)" fill="#fff"/>
      <path id="Path_80" data-name="Path 80" d="M11.537,37.572a1.9,1.9,0,0,1-1.9-1.9L9.6,24.459A10.983,10.983,0,0,1,19.31,13.517a60.027,60.027,0,0,1,7.2-.257,61.452,61.452,0,0,1,7.161.223,10.983,10.983,0,0,1,9.762,10.895L43.468,35.6a1.9,1.9,0,0,1-3.8.016L39.627,24.39a7.179,7.179,0,0,0-6.382-7.126,57.585,57.585,0,0,0-6.728-.2,58.964,58.964,0,0,0-6.768.229A7.185,7.185,0,0,0,13.4,24.446l.041,11.218a1.9,1.9,0,0,1-1.9,1.908Z" transform="translate(20.519 28.324)" fill="#fff"/>
      <path id="Path_81" data-name="Path 81" d="M39.363,75.384A36.011,36.011,0,1,1,73.588,50.652,36.008,36.008,0,0,1,39.363,75.384m0-68.236A32.226,32.226,0,1,0,62.15,62.161,32.226,32.226,0,0,0,39.363,7.148" transform="translate(7.162 7.152)" fill="#fff"/>
      <path id="Path_82" data-name="Path 82" d="M20.864,4.051c-.066,0-.135,0-.2-.009A43.079,43.079,0,0,0,16.119,3.8a1.9,1.9,0,0,1,0-3.8,46.384,46.384,0,0,1,4.942.26,1.9,1.9,0,0,1-.2,3.791" transform="translate(30.403 0.001)" fill="#fff"/>
      <path id="Path_83" data-name="Path 83" d="M49.425,32.375A1.9,1.9,0,0,1,47.63,31.1a42.441,42.441,0,0,0-3.345-7.283,1.9,1.9,0,1,1,3.288-1.908,46.1,46.1,0,0,1,3.646,7.942,1.9,1.9,0,0,1-1.17,2.419,1.88,1.88,0,0,1-.624.107M41.062,17.947a1.89,1.89,0,0,1-1.437-.659q-1.007-1.167-2.115-2.275a43.015,43.015,0,0,0-3.678-3.276A1.9,1.9,0,0,1,36.2,8.759a47.5,47.5,0,0,1,4,3.565q1.2,1.21,2.3,2.476a1.9,1.9,0,0,1-1.437,3.147M28,7.579a1.875,1.875,0,0,1-.879-.217A42.769,42.769,0,0,0,19.7,4.332,1.9,1.9,0,1,1,20.8.692,46.511,46.511,0,0,1,28.884,4,1.9,1.9,0,0,1,28,7.579" transform="translate(39.223 1.302)" fill="#fff"/>
      <path id="Path_84" data-name="Path 84" d="M30.633,20.65a1.9,1.9,0,0,1-1.9-1.823,42.629,42.629,0,0,0-.427-4.528,1.9,1.9,0,1,1,3.759-.555,46.772,46.772,0,0,1,.468,4.926,1.9,1.9,0,0,1-1.823,1.977l-.078,0" transform="translate(60.475 25.915)" fill="#fff"/>
      <path id="Path_85" data-name="Path 85" d="M46.525,93.047a46.522,46.522,0,0,1-32.9-79.42A46.218,46.218,0,0,1,46.525,0a1.9,1.9,0,0,1,0,3.8A42.721,42.721,0,0,0,16.317,76.734,42.72,42.72,0,0,0,89.21,44.74a1.9,1.9,0,0,1,1.823-1.977,1.916,1.916,0,0,1,1.977,1.82A46.522,46.522,0,0,1,46.525,93.047" transform="translate(0 0.001)" fill="#fff"/>
      <path id="Path_86" data-name="Path 86" d="M30.057,51.338a7.819,7.819,0,0,1-5.545-2.294l-3.778-3.778a1.9,1.9,0,0,1,.546-3.072A42.592,42.592,0,0,0,33.6,33.6,42.586,42.586,0,0,0,42.195,21.28a1.9,1.9,0,0,1,3.069-.546l3.781,3.781a7.844,7.844,0,0,1,0,11.083L35.6,49.044a7.817,7.817,0,0,1-5.541,2.294m-4.766-6.891L27.2,46.358a4.047,4.047,0,0,0,5.711,0L46.359,32.913a4.047,4.047,0,0,0,0-5.711l-1.914-1.911a46.361,46.361,0,0,1-8.158,11,46.374,46.374,0,0,1-11,8.162" transform="translate(43.137 43.135)" fill="#fff"/>
      <path id="Path_87" data-name="Path 87" d="M52.116,62.464A10.322,10.322,0,0,1,44.8,59.436L24.851,39.492a1.9,1.9,0,0,1,0-2.686L36.807,24.85a1.905,1.905,0,0,1,2.689,0L59.437,44.795a10.349,10.349,0,0,1-7.321,17.669M28.884,38.149l18.6,18.6a6.551,6.551,0,1,0,9.263-9.266l-18.6-18.6Z" transform="translate(51.942 51.941)" fill="#fff"/>
      <path id="Path_88" data-name="Path 88" d="M28.639,42.494A1.9,1.9,0,0,1,27.3,39.25L39.248,27.294a1.9,1.9,0,0,1,2.689,2.689L29.982,41.939a1.893,1.893,0,0,1-1.343.555" transform="translate(57.163 57.166)" fill="#fff"/>
      <path id="Path_89" data-name="Path 89" d="M14.157,27.482a1.9,1.9,0,0,1-1.9-1.9V19.87a1.9,1.9,0,0,1,3.8,0V25.58a1.9,1.9,0,0,1-1.9,1.9" transform="translate(26.2 38.415)" fill="#fff"/>
      <path id="Path_90" data-name="Path 90" d="M18.424,27.482a1.9,1.9,0,0,1-1.9-1.9V19.87a1.9,1.9,0,0,1,3.8,0V25.58a1.9,1.9,0,0,1-1.9,1.9" transform="translate(35.322 38.415)" fill="#fff"/>
    </g>
  </g>
</svg>
