<svg xmlns="http://www.w3.org/2000/svg" width="23.175" height="23.158" viewBox="0 0 23.175 23.158">
  <path id="search_FILL1_wght600_GRAD0_opsz48" d="M128.386-827.451l-8.276-8.258a6.848,6.848,0,0,1-2.147,1.178,8.081,8.081,0,0,1-2.651.425,8.02,8.02,0,0,1-5.9-2.418A7.954,7.954,0,0,1,107-842.358a7.949,7.949,0,0,1,2.418-5.834,7.968,7.968,0,0,1,5.849-2.418,7.917,7.917,0,0,1,5.834,2.418,7.981,7.981,0,0,1,2.4,5.838,8.058,8.058,0,0,1-.409,2.583,7.89,7.89,0,0,1-1.226,2.286l8.307,8.245Zm-13.1-9.116a5.514,5.514,0,0,0,4.083-1.694,5.621,5.621,0,0,0,1.67-4.1,5.616,5.616,0,0,0-1.673-4.1,5.517,5.517,0,0,0-4.08-1.694,5.627,5.627,0,0,0-4.13,1.694,5.575,5.575,0,0,0-1.7,4.1,5.58,5.58,0,0,0,1.695,4.1A5.625,5.625,0,0,0,115.288-836.567Z" transform="translate(-106.999 850.609)"/>
</svg>
