<svg xmlns="http://www.w3.org/2000/svg" xmlns:xlink="http://www.w3.org/1999/xlink" width="91.922" height="92.115" viewBox="0 0 91.922 92.115">
  <defs>
    <clipPath id="clip-path">
      <rect id="Rectangle_108" data-name="Rectangle 108" width="91.922" height="92.115" fill="#fff"/>
    </clipPath>
  </defs>
  <g id="Group_159" data-name="Group 159" transform="translate(0 0)">
    <g id="Group_158" data-name="Group 158" transform="translate(0 0)" clip-path="url(#clip-path)">
      <path id="Path_73" data-name="Path 73" d="M18.6,91.956a18.651,18.651,0,0,1-4.645-.588,1.542,1.542,0,0,1-.7-2.583l5.439-5.441A7.124,7.124,0,0,0,8.612,73.269L3.171,78.71A1.541,1.541,0,0,1,.587,78a18.617,18.617,0,0,1,23.8-22.383l31.2-31.2A18.619,18.619,0,0,1,77.97.623a1.542,1.542,0,0,1,.7,2.583L73.234,8.647A7.125,7.125,0,0,0,83.312,18.722l5.439-5.441a1.542,1.542,0,0,1,2.583.7,18.617,18.617,0,0,1-23.8,22.386l-31.2,31.2A18.6,18.6,0,0,1,18.6,91.956m-1.043-3.118A15.529,15.529,0,0,0,33.122,67.723a1.539,1.539,0,0,1,.349-1.644L66.044,33.5a1.549,1.549,0,0,1,1.647-.349A15.524,15.524,0,0,0,88.8,17.59L85.49,20.9A10.209,10.209,0,1,1,71.053,6.466l3.314-3.314A15.528,15.528,0,0,0,58.8,24.265a1.536,1.536,0,0,1-.346,1.647L25.879,58.488a1.537,1.537,0,0,1-1.647.346A15.529,15.529,0,0,0,3.117,74.4l3.316-3.314A10.208,10.208,0,0,1,20.868,85.525Z" transform="translate(0 0.053)" fill="#fff"/>
      <path id="Path_74" data-name="Path 74" d="M19.672,16.948a1.546,1.546,0,0,1-1.092-.45L10.154,8.069a1.538,1.538,0,0,1,0-2.178L15.61.434a1.586,1.586,0,0,1,2.178,0L26.217,8.86a1.539,1.539,0,0,1,0,2.181L20.761,16.5a1.536,1.536,0,0,1-1.089.45M13.424,6.98l6.248,6.248,3.275-3.275L16.7,3.7Z" transform="translate(14.988 0)" fill="#fff"/>
      <path id="Path_75" data-name="Path 75" d="M6.431,48.836a1.536,1.536,0,0,1-1.412-.924c-7.813-17.838.384-31.275,10.658-37.9a40.115,40.115,0,0,0,6.576-5.385L23.7,3.175a1.583,1.583,0,0,1,2.178,0l5.077,5.075a1.54,1.54,0,0,1,.181,1.965l-4.029,5.848a2.388,2.388,0,0,0,.28,3.041l6.034,6.037a1.541,1.541,0,0,1,0,2.181L23.271,37.473a1.541,1.541,0,0,1-2.181,0l-6.212-6.212a2.2,2.2,0,0,0-1.9-.7,2.985,2.985,0,0,0-2.087,1.667C8.249,37.145,7.974,47.231,7.971,47.332a1.54,1.54,0,0,1-1.242,1.476,1.73,1.73,0,0,1-.3.028M24.791,6.445l-.359.359a43.39,43.39,0,0,1-7.083,5.8C13.42,15.136,2.2,23.934,5.579,39.776a29.6,29.6,0,0,1,2.6-9.012,6.007,6.007,0,0,1,4.354-3.255,5.27,5.27,0,0,1,4.53,1.573l5.123,5.12,7.971-7.973-4.945-4.947a5.464,5.464,0,0,1-.636-6.971l3.3-4.79Z" transform="translate(2.959 4.233)" fill="#fff"/>
      <path id="Path_76" data-name="Path 76" d="M19.632,30.641a1.537,1.537,0,0,1-1.089-.453L10.3,21.947a1.538,1.538,0,0,1,0-2.178l7.495-7.5a1.589,1.589,0,0,1,2.181,0l8.241,8.241a1.545,1.545,0,0,1,0,2.181l-7.495,7.495a1.543,1.543,0,0,1-1.092.453m-6.06-9.783,6.06,6.06L24.949,21.6l-6.062-6.06Z" transform="translate(15.218 18.288)" fill="#fff"/>
      <path id="Path_77" data-name="Path 77" d="M54.082,62.9A6.8,6.8,0,0,1,49.244,60.9L17.381,29.035a1.536,1.536,0,0,1,0-2.178l7.5-7.5a1.542,1.542,0,0,1,2.178,0L58.92,51.222A6.843,6.843,0,0,1,54.082,62.9M20.651,27.946,51.425,58.72A3.759,3.759,0,0,0,56.741,53.4L25.968,22.63Z" transform="translate(26.153 29.213)" fill="#fff"/>
      <path id="Path_78" data-name="Path 78" d="M21.535,32.552a1.542,1.542,0,0,1-1.089-2.631l7.495-7.5A1.541,1.541,0,0,1,30.119,24.6L22.624,32.1a1.528,1.528,0,0,1-1.089.453" transform="translate(30.889 33.947)" fill="#fff"/>
    </g>
  </g>
</svg>
