<svg xmlns="http://www.w3.org/2000/svg" width="26.991" height="26.991" viewBox="0 0 26.991 26.991">
  <path id="language_FILL1_wght600_GRAD200_opsz48" d="M74.67-872.4a13.445,13.445,0,0,1-5.286-1.037,13.316,13.316,0,0,1-4.3-2.893,13.358,13.358,0,0,1-2.877-4.327,13.652,13.652,0,0,1-1.03-5.309,13.507,13.507,0,0,1,1.03-5.279,12.831,12.831,0,0,1,2.877-4.262,13.77,13.77,0,0,1,4.3-2.845,13.432,13.432,0,0,1,5.293-1.039,13.339,13.339,0,0,1,5.27,1.039,13.794,13.794,0,0,1,4.294,2.845,12.935,12.935,0,0,1,2.886,4.266,13.453,13.453,0,0,1,1.039,5.29,13.5,13.5,0,0,1-1.039,5.3,13.5,13.5,0,0,1-2.886,4.322,13.321,13.321,0,0,1-4.3,2.893A13.392,13.392,0,0,1,74.67-872.4Zm-.028-2.61a9.813,9.813,0,0,0,1.815-2.588,17.447,17.447,0,0,0,1.226-3.544H71.67a15.842,15.842,0,0,0,1.176,3.469A10.79,10.79,0,0,0,74.642-875.01Zm-2.734-.4a12.936,12.936,0,0,1-1.341-2.554,21.128,21.128,0,0,1-.945-3.177H64.892a11.165,11.165,0,0,0,2.742,3.516A13.621,13.621,0,0,0,71.908-875.41Zm5.5-.032a11.382,11.382,0,0,0,4.08-2.171,12.588,12.588,0,0,0,2.953-3.528H79.768a22.164,22.164,0,0,1-1,3.14A13.767,13.767,0,0,1,77.409-875.442ZM64.24-883.071h5.032a14.2,14.2,0,0,1-.131-1.539q-.016-.683-.016-1.341,0-.805.032-1.415t.147-1.369H64.24a11.875,11.875,0,0,0-.3,1.352,9.765,9.765,0,0,0-.09,1.431,10.861,10.861,0,0,0,.09,1.47A11.042,11.042,0,0,0,64.24-883.071Zm7.063,0h6.749q.111-.984.134-1.6t.023-1.277q0-.644-.023-1.222t-.135-1.562H71.3q-.129.984-.161,1.562t-.032,1.222q0,.658.032,1.277T71.3-883.071Zm8.746,0H85.1q.157-.759.255-1.41a9.872,9.872,0,0,0,.1-1.47,8.877,8.877,0,0,0-.1-1.431q-.1-.594-.255-1.352H80.081q.046,1.163.078,1.721t.032,1.062q0,.69-.048,1.309T80.049-883.071Zm-.313-7.611h4.707a11.276,11.276,0,0,0-2.889-3.639,10.232,10.232,0,0,0-4.177-2.075,14.925,14.925,0,0,1,1.364,2.537A19.789,19.789,0,0,1,79.736-890.681Zm-8.066,0h6.045a12.688,12.688,0,0,0-1.132-3.239,11.788,11.788,0,0,0-1.941-2.821,7.351,7.351,0,0,0-1.654,2.269A20.8,20.8,0,0,0,71.67-890.681Zm-6.778,0h4.756a19.523,19.523,0,0,1,.882-3.064,14.5,14.5,0,0,1,1.345-2.617,10.277,10.277,0,0,0-4.154,2.017A10.487,10.487,0,0,0,64.892-890.681Z" transform="translate(-61.174 899.391)" fill="#fff"/>
</svg>
